<svg width="68" height="29" viewBox="0 0 68 29" fill="none" xmlns="http://www.w3.org/2000/svg">
<path d="M18.0547 4.90686C17.9609 4.85999 17.8203 5.12952 17.6328 5.71545C17.4688 6.27795 17.2461 7.01624 16.9648 7.9303C16.6836 8.82092 16.3789 9.84045 16.0508 10.9889C15.7461 12.1139 15.4062 13.2389 15.0312 14.3639C14.6562 15.4889 14.2812 16.5436 13.9062 17.528C13.5312 18.4889 13.1562 19.2506 12.7812 19.8131C12.4062 20.3756 12.0547 20.692 11.7266 20.7623C11.3984 20.8092 11.1055 20.4694 10.8477 19.7428C10.6602 19.4147 10.3906 18.899 10.0391 18.1959C9.71094 17.4694 9.32422 16.6608 8.87891 15.7701C8.43359 14.8795 7.96484 13.942 7.47266 12.9576C6.98047 11.9733 6.51172 11.0475 6.06641 10.1803C5.64453 9.28967 5.24609 8.4928 4.87109 7.78967C4.51953 7.08655 4.26172 6.57092 4.09766 6.2428C3.81641 5.72717 3.55859 5.31702 3.32422 5.01233C3.11328 4.6842 2.77344 4.52014 2.30469 4.52014C2.30469 6.16077 2.39844 7.96545 2.58594 9.9342C2.77344 11.903 2.97266 13.8951 3.18359 15.9108C3.41797 17.9264 3.62891 19.9186 3.81641 21.8873C4.00391 23.8326 4.09766 25.6373 4.09766 27.3014C4.19141 27.5123 4.15625 27.7115 3.99219 27.899C3.85156 28.0865 3.64062 28.2272 3.35938 28.3209C3.10156 28.4147 2.80859 28.4147 2.48047 28.3209C2.17578 28.2506 1.91797 28.0631 1.70703 27.7584C1.49609 25.6725 1.37891 23.5514 1.35547 21.3951C1.35547 19.2155 1.34375 17.0358 1.32031 14.8561C1.29688 12.6764 1.20312 10.4967 1.03906 8.31702C0.875 6.11389 0.546875 3.92249 0.0546875 1.7428C0.03125 1.32092 0.101562 1.06311 0.265625 0.96936C0.429688 0.852173 0.640625 0.793579 0.898438 0.793579C1.46094 0.793579 1.96484 0.934204 2.41016 1.21545C2.87891 1.47327 3.30078 1.81311 3.67578 2.23499C4.05078 2.63342 4.37891 3.07874 4.66016 3.57092C4.96484 4.06311 5.23438 4.50842 5.46875 4.90686C5.65625 5.21155 5.91406 5.69202 6.24219 6.34827L7.36719 8.63342C7.78906 9.47717 8.22266 10.3678 8.66797 11.3053C9.13672 12.2194 9.58203 13.0983 10.0039 13.942C10.4258 14.7623 10.8125 15.5006 11.1641 16.1569C11.5156 16.7897 11.7852 17.2467 11.9727 17.528C12.0664 17.528 12.1484 17.4928 12.2188 17.4225C12.2891 17.3522 12.3828 17.153 12.5 16.8248C12.6406 16.4967 12.8164 15.9928 13.0273 15.3131C13.2617 14.6334 13.5781 13.6959 13.9766 12.5006C14.375 11.3053 14.8672 9.79358 15.4531 7.96545C16.0391 6.13733 16.7539 3.91077 17.5977 1.28577C17.6445 1.16858 17.7969 1.06311 18.0547 0.96936C18.3125 0.87561 18.5469 0.828735 18.7578 0.828735C18.9688 0.828735 19.1094 0.899048 19.1797 1.03967C19.2734 1.1803 19.3438 1.41467 19.3906 1.7428C19.6016 3.73499 19.7656 5.82092 19.8828 8.00061C20.0234 10.1569 20.1992 12.3483 20.4102 14.5748C20.6211 16.778 20.8789 18.9694 21.1836 21.149C21.5117 23.3287 21.957 25.403 22.5195 27.3717L20.0938 28.3209L18.0547 4.90686ZM24.2773 18.9694C24.6055 18.5944 24.8867 18.3483 25.1211 18.2311C25.3555 18.0905 25.6602 18.0201 26.0352 18.0201C26.668 18.0201 26.9844 18.3365 26.9844 18.9694C26.9844 19.0865 26.9375 19.2389 26.8438 19.4264C26.7734 19.5905 26.668 19.7545 26.5273 19.9186C26.3867 20.0826 26.2344 20.2115 26.0703 20.3053C25.9297 20.3756 25.7773 20.3756 25.6133 20.3053C25.4727 20.4225 25.3086 20.4576 25.1211 20.4108C24.957 20.3405 24.793 20.2467 24.6289 20.1295C24.4883 19.9889 24.3828 19.8131 24.3125 19.6022C24.2422 19.3912 24.2305 19.1803 24.2773 18.9694ZM29.0938 21.9928C29.0938 21.2428 29.1641 20.2233 29.3047 18.9342C29.4688 17.6451 29.7031 16.2623 30.0078 14.7858C30.3359 13.3092 30.7344 11.8209 31.2031 10.3209C31.6719 8.79749 32.2227 7.42639 32.8555 6.20764C33.5117 4.98889 34.25 3.9928 35.0703 3.21936C35.9141 2.44592 36.8398 2.0592 37.8477 2.0592C38.4336 2.0592 38.9258 2.16467 39.3242 2.37561C39.7461 2.58655 40.0859 2.87952 40.3438 3.25452C40.625 3.60608 40.8242 4.01624 40.9414 4.48499C41.082 4.9303 41.1523 5.42249 41.1523 5.96155C40.7305 5.96155 40.3906 5.85608 40.1328 5.64514C39.875 5.41077 39.6406 5.16467 39.4297 4.90686C39.2188 4.64905 38.9961 4.41467 38.7617 4.20374C38.5508 3.96936 38.2578 3.85217 37.8828 3.85217C37.1328 3.85217 36.4414 4.21545 35.8086 4.94202C35.1758 5.64514 34.6016 6.54749 34.0859 7.64905C33.5703 8.75061 33.1133 9.98108 32.7148 11.3405C32.3164 12.6764 31.9766 13.9889 31.6953 15.278C31.4375 16.5436 31.2383 17.7037 31.0977 18.7584C30.957 19.7897 30.8867 20.5631 30.8867 21.0787C30.8867 21.7584 30.9219 22.4264 30.9922 23.0826C31.0625 23.7155 31.2148 24.2897 31.4492 24.8053C31.6836 25.3209 32.0234 25.7428 32.4688 26.0709C32.9141 26.3756 33.5469 26.528 34.3672 26.528C35.3047 26.528 36.2305 26.2233 37.1445 25.6139C38.082 25.0045 38.9492 24.2662 39.7461 23.399C40.543 22.5084 41.2344 21.5709 41.8203 20.5865C42.4062 19.5787 42.8281 18.6998 43.0859 17.9498C43.1328 17.9264 43.2383 17.9147 43.4023 17.9147C43.5664 17.8912 43.6719 17.8795 43.7188 17.8795C44 17.8795 44.2578 17.9147 44.4922 17.985C44.75 18.0319 44.8789 18.2428 44.8789 18.6178C44.7383 19.3678 44.4102 20.1647 43.8945 21.0084C43.3789 21.8287 42.7695 22.6373 42.0664 23.4342C41.3633 24.2311 40.5898 24.9694 39.7461 25.649C38.9023 26.3287 38.082 26.903 37.2852 27.3717C36.4883 27.8405 35.75 28.1569 35.0703 28.3209C34.3906 28.5084 33.8398 28.4967 33.418 28.2858C32.6445 28.2858 31.9766 28.0748 31.4141 27.653C30.875 27.2076 30.4297 26.6686 30.0781 26.0358C29.75 25.403 29.5039 24.7233 29.3398 23.9967C29.1758 23.2701 29.0938 22.6022 29.0938 21.9928ZM46.4609 18.9694C46.7891 18.5944 47.0703 18.3483 47.3047 18.2311C47.5391 18.0905 47.8438 18.0201 48.2188 18.0201C48.8516 18.0201 49.168 18.3365 49.168 18.9694C49.168 19.0865 49.1211 19.2389 49.0273 19.4264C48.957 19.5905 48.8516 19.7545 48.7109 19.9186C48.5703 20.0826 48.418 20.2115 48.2539 20.3053C48.1133 20.3756 47.9609 20.3756 47.7969 20.3053C47.6562 20.4225 47.4922 20.4576 47.3047 20.4108C47.1406 20.3405 46.9766 20.2467 46.8125 20.1295C46.6719 19.9889 46.5664 19.8131 46.4961 19.6022C46.4258 19.3912 46.4141 19.1803 46.4609 18.9694ZM51.3125 27.3717C51.3828 27.0436 51.4414 26.6217 51.4883 26.1061C51.5352 25.5905 51.5938 24.9108 51.6641 24.067C51.7578 23.2233 51.8516 22.1803 51.9453 20.9381C52.0625 19.6959 52.2148 18.1842 52.4023 16.403C52.5898 14.6217 52.8008 12.5358 53.0352 10.1451C53.293 7.73108 53.6211 4.9303 54.0195 1.7428C54.043 1.50842 54.1484 1.3678 54.3359 1.32092C54.5469 1.27405 54.7344 1.25061 54.8984 1.25061C55.1562 1.25061 55.3672 1.34436 55.5312 1.53186C55.6953 1.71936 55.8359 1.9303 55.9531 2.16467C56.0938 2.39905 56.2227 2.64514 56.3398 2.90295C56.457 3.16077 56.5859 3.3717 56.7266 3.53577C56.9609 4.07483 57.1953 4.69592 57.4297 5.39905C57.6875 6.10217 57.957 6.85217 58.2383 7.64905C58.5195 8.44592 58.8008 9.25452 59.082 10.0748C59.3633 10.8717 59.6445 11.6569 59.9258 12.4303C60.207 13.1803 60.4648 13.8834 60.6992 14.5397C60.957 15.1725 61.1914 15.6998 61.4023 16.1217C61.6602 16.0983 62.0234 16.0045 62.4922 15.8405C62.9609 15.653 63.4648 15.4772 64.0039 15.3131C64.543 15.149 65.0703 15.0201 65.5859 14.9264C66.1016 14.8326 66.5352 14.8326 66.8867 14.9264C67.2383 14.9967 67.4609 15.1959 67.5547 15.524C67.6719 15.8522 67.5898 16.3678 67.3086 17.0709C67.1445 17.0709 66.9922 17.0475 66.8516 17.0006C66.7109 16.9303 66.5703 16.8717 66.4297 16.8248C66.2891 16.7545 66.1367 16.6959 65.9727 16.649C65.832 16.5787 65.668 16.5436 65.4805 16.5436C65.3633 16.5436 65.0938 16.6139 64.6719 16.7545C64.2734 16.8717 63.8398 17.0123 63.3711 17.1764C62.9023 17.317 62.4922 17.4694 62.1406 17.6334C61.7891 17.774 61.6133 17.8795 61.6133 17.9498L64.0391 27.4772L63.125 28.8131C62.7266 28.1334 62.3867 27.36 62.1055 26.4928C61.8477 25.6022 61.6016 24.7233 61.3672 23.8561C61.1328 22.9655 60.8867 22.1451 60.6289 21.3951C60.3945 20.6217 60.0898 19.9772 59.7148 19.4615C59.2227 19.6959 58.6367 19.8951 57.957 20.0592C57.2773 20.2233 56.6211 20.4342 55.9883 20.692C55.3555 20.9264 54.8047 21.2545 54.3359 21.6764C53.8906 22.0748 53.6211 22.6256 53.5273 23.3287C53.4805 23.61 53.4336 23.985 53.3867 24.4537C53.3633 24.9225 53.3281 25.3678 53.2812 25.7897C53.2109 26.3053 53.1523 26.8326 53.1055 27.3717H51.3125ZM55.3555 6.66467L55.2852 7.26233C55.2617 7.66077 55.2266 8.12952 55.1797 8.66858C55.1328 9.1842 55.0742 9.72327 55.0039 10.2858C54.957 10.8248 54.9219 11.2819 54.8984 11.6569C54.7812 12.9694 54.6523 14.2701 54.5117 15.5592C54.3945 16.8248 54.3359 18.1256 54.3359 19.4615C54.7812 19.4615 55.25 19.403 55.7422 19.2858C56.2578 19.1686 56.75 19.0162 57.2188 18.8287C57.6875 18.6178 58.1094 18.3717 58.4844 18.0905C58.8828 17.7858 59.1875 17.4459 59.3984 17.0709C59.2109 16.2506 59 15.4069 58.7656 14.5397C58.5547 13.649 58.3203 12.7584 58.0625 11.8678C57.8047 10.9537 57.5234 10.0631 57.2188 9.19592C56.9141 8.32874 56.5859 7.48499 56.2344 6.66467C56.2109 6.64124 56.1289 6.59436 55.9883 6.52405C55.8477 6.4303 55.6367 6.47717 55.3555 6.66467Z" fill="black"/>
</svg>
